# xmcd CD database file
#
# Track frame offsets:
#	150
#	11181
#	72111
#	89368
#	104283
#	190144
#	201452
#	234303
#	278853
#
# Disc length: 3846 seconds
#
# Revision: 0
# Processed by: cddbd v1.5.2PL0 Copyright (c) Steve Scherf et al.
# Submitted via: CDex 1.70beta2
#
DISCID=7b0f0409
DTITLE=八木美知依 and Elliott Sharp - Reflexions
DYEAR=2005
DGENRE=Jazz
TTITLE0=Darkly Dreaming
TTITLE1=Tempest
TTITLE2=Refractions
TTITLE3=The Candy Factory
TTITLE4=Journey
TTITLE5=Shortwave
TTITLE6=Folklore
TTITLE7=The Jumblies
TTITLE8=Dreaming Darkly
EXTD=YEAR: 2005
EXTT0=
EXTT1=
EXTT2=
EXTT3=
EXTT4=
EXTT5=
EXTT6=
EXTT7=
EXTT8=
PLAYORDER=
